<svg xmlns="http://www.w3.org/2000/svg" width="52" height="52" viewBox="0 0 52 52">
    <path fill="#FFF" fill-rule="evenodd" d="M26 0C11.668 0 0 11.668 0 26s11.668 26 26 26 26-11.668 26-26S40.332 0 26 0zm24.985 26c0 .846-.042 1.733-.126 2.579l-4.397-.55c.084-.676.084-1.353.084-2.029 0-.634-.042-1.268-.084-1.902l4.397-.508c.084.803.126 1.607.126 2.41zm-49.97 0c0-.846.042-1.691.126-2.537l4.397.55c-.042.634-.084 1.31-.084 1.987 0 .676.042 1.31.084 1.987l-4.397.507A24.025 24.025 0 0 1 1.015 26zm44.39-6.722l4.143-1.564c.55 1.564.93 3.17 1.184 4.862l-4.44.507a19.162 19.162 0 0 0-.887-3.805zM45.489 26c0 1.31-.126 2.579-.38 3.805l-4.355-1.015c.17-.888.254-1.818.254-2.79s-.084-1.945-.296-2.917l4.397-.972a19.89 19.89 0 0 1 .38 3.889zM26 40.036c-7.737 0-13.993-6.3-13.993-13.994S18.263 12.007 26 12.007 39.993 18.306 39.993 26 33.694 40.036 26 40.036zm.465 5.496V41.05c1.987-.042 3.847-.507 5.58-1.268l1.945 4.059a20.382 20.382 0 0 1-7.525 1.69zm-8.54-1.776l1.945-4.058a15.42 15.42 0 0 0 5.58 1.31v4.481a18.703 18.703 0 0 1-7.525-1.733zM6.468 26c0-1.353.127-2.663.423-3.932l4.355 1.015a13.783 13.783 0 0 0-.296 2.96c0 .93.084 1.86.253 2.747l-4.396 1.015A23.14 23.14 0 0 1 6.468 26zM25.493 6.51v4.482a15.801 15.801 0 0 0-5.496 1.226l-1.945-4.059a20.57 20.57 0 0 1 7.44-1.648zm8.497 1.734l-1.944 4.016c-1.692-.76-3.594-1.184-5.539-1.268V6.51c2.664.084 5.2.676 7.483 1.733zm11.034 10.104a20.8 20.8 0 0 0-1.817-3.467l3.678-2.536a24.638 24.638 0 0 1 2.325 4.439l-4.186 1.564zm-.126 2.79l-4.397.973a15.167 15.167 0 0 0-2.494-5.116l3.508-2.79a19.988 19.988 0 0 1 3.383 6.933zm-7.526-4.904c-1.226-1.437-2.748-2.621-4.396-3.509L34.92 8.71a19.826 19.826 0 0 1 5.961 4.777l-3.509 2.748zm-1.31-8.117l2.071-3.932c1.48.804 2.833 1.776 4.101 2.875l-2.96 3.298a22.771 22.771 0 0 0-3.212-2.24zm-.888-.465a17.412 17.412 0 0 0-3.678-1.395l1.057-4.312c1.606.465 3.17 1.057 4.65 1.818l-2.029 3.889zm-4.65-1.649a20.442 20.442 0 0 0-3.974-.507v-4.44c1.733.043 3.424.255 5.03.635l-1.056 4.312zm-4.989-.507c-1.353.042-2.663.169-3.932.465L20.59 1.607a27.293 27.293 0 0 1 4.988-.592v4.48h-.042zm-4.904.676c-1.268.339-2.537.804-3.678 1.395L14.88 3.636a22.377 22.377 0 0 1 4.693-1.776l1.057 4.312zm-4.566 1.86a21.205 21.205 0 0 0-3.255 2.241l-2.96-3.34c1.269-1.099 2.664-2.029 4.143-2.832l2.072 3.932zm1.057.592l1.945 4.059a15.523 15.523 0 0 0-4.44 3.509l-3.508-2.79a19.49 19.49 0 0 1 6.003-4.778zm-6.637 5.539l3.508 2.79a14.965 14.965 0 0 0-2.494 5.073l-4.397-1.015a19.598 19.598 0 0 1 3.383-6.848zm-3.51 4.058l-4.142-1.564c.634-1.564 1.437-3.044 2.325-4.44l3.678 2.537c-.719 1.1-1.353 2.241-1.86 3.467zm-.338.972c-.422 1.227-.76 2.495-.93 3.848l-4.439-.55c.212-1.691.634-3.34 1.184-4.904l4.185 1.606zm-.972 9.809c.211 1.31.507 2.62.93 3.847l-4.143 1.564c-.55-1.564-.972-3.213-1.184-4.904l4.397-.507zm1.31 4.777a21.404 21.404 0 0 0 1.86 3.509l-3.677 2.536a24.638 24.638 0 0 1-2.325-4.439l4.143-1.606zm.085-3.044l4.355-.972a14.186 14.186 0 0 0 2.452 5.157l-3.51 2.748a19.46 19.46 0 0 1-3.297-6.933zm7.44 4.946a14.587 14.587 0 0 0 4.44 3.594l-1.945 4.058a19.015 19.015 0 0 1-6.003-4.82l3.509-2.832zm1.523 8.286L13.95 47.9c-1.48-.803-2.832-1.775-4.1-2.832l2.959-3.34a18.985 18.985 0 0 0 3.213 2.24zm.93.466a19.358 19.358 0 0 0 3.678 1.395l-1.057 4.312a22.377 22.377 0 0 1-4.693-1.776l2.072-3.931zm4.65 1.648c1.269.296 2.58.423 3.89.465v4.44a27.742 27.742 0 0 1-4.989-.593l1.1-4.312zm4.947.465a23.295 23.295 0 0 0 3.889-.465l1.057 4.312c-1.607.381-3.255.55-4.946.592v-4.439zm4.861-.76a19.358 19.358 0 0 0 3.678-1.396l2.072 3.932a22.935 22.935 0 0 1-4.65 1.776l-1.1-4.313zm4.566-1.86a18.985 18.985 0 0 0 3.213-2.241l2.96 3.34c-1.269 1.056-2.622 2.029-4.101 2.832l-2.072-3.932zm-1.057-.55l-1.944-4.059a15.28 15.28 0 0 0 4.48-3.593l3.51 2.79a20.442 20.442 0 0 1-6.046 4.862zm6.638-5.623l-3.51-2.833a14.186 14.186 0 0 0 2.453-5.157l4.354 1.014c-.592 2.58-1.733 4.904-3.297 6.976zm3.424-3.974l4.143 1.564c-.634 1.564-1.395 3.044-2.325 4.397l-3.636-2.537c.719-1.057 1.31-2.198 1.818-3.424zm.38-.93c.423-1.226.762-2.495.93-3.805l4.397.55a26.342 26.342 0 0 1-1.183 4.861l-4.143-1.606zm.93-21.35l-3.677 2.537c-.761-1.057-1.65-2.03-2.58-2.96l2.96-3.34a25.34 25.34 0 0 1 3.298 3.763zM9.09 7.61l2.96 3.34a19.319 19.319 0 0 0-2.621 2.96l-3.636-2.537A25.34 25.34 0 0 1 9.089 7.61zM5.75 40.629l3.679-2.537c.76 1.057 1.648 2.03 2.62 2.96L9.09 44.39a25.627 25.627 0 0 1-3.34-3.763zm37.162 3.72l-2.96-3.34a18.74 18.74 0 0 0 2.58-2.917l3.635 2.537c-.93 1.352-2.03 2.579-3.255 3.72z"/>
</svg>
