<svg xmlns="http://www.w3.org/2000/svg" width="48" height="48" viewBox="0 0 48 48">
    <g fill="#FFF" fill-rule="nonzero">
        <path d="M24 48c13.255 0 24-10.745 24-24S37.255 0 24 0 0 10.745 0 24s10.745 24 24 24zm0-1.714C11.692 46.286 1.714 36.308 1.714 24 1.714 11.692 11.692 1.714 24 1.714c12.308 0 22.286 9.978 22.286 22.286 0 12.308-9.978 22.286-22.286 22.286z"/>
        <path d="M1 21.528A49.7 49.7 0 0 0 7.846 22C20.747 22 32.869 17.02 42 8.254L40.801 7C31.99 15.459 20.296 20.263 7.846 20.263c-2.225 0-4.432-.153-6.608-.455L1 21.528z"/>
        <path d="M35 44.754A87.461 87.461 0 0 0 16.307 2L15 3.087A85.739 85.739 0 0 1 33.326 45L35 44.754z"/>
        <path d="M47 24.827A31.082 31.082 0 0 0 36.469 23C24.167 23 13.154 30.208 8 41.266L9.538 42c4.876-10.462 15.294-17.28 26.93-17.28a29.4 29.4 0 0 1 9.963 1.728l.569-1.62z"/>
    </g>
</svg>
