<svg xmlns="http://www.w3.org/2000/svg" width="52" height="52" viewBox="0 0 52 52">
    <g fill="#FFF" fill-rule="evenodd" stroke="#181818" stroke-width="3">
        <path d="M26 6.33c6.406 0 7.165.025 9.695.14 2.34.107 3.61.498 4.455.826 1.12.436 1.92.956 2.759 1.795.84.84 1.36 1.64 1.794 2.759.329.845.72 2.116.827 4.455.115 2.53.14 3.289.14 9.695 0 6.406-.025 7.165-.14 9.695-.107 2.34-.498 3.61-.827 4.455-.435 1.12-.955 1.92-1.794 2.759-.84.84-1.64 1.36-2.759 1.794-.845.329-2.116.72-4.455.827-2.53.115-3.288.14-9.695.14s-7.165-.025-9.695-.14c-2.34-.107-3.61-.498-4.455-.827-1.12-.435-1.92-.955-2.759-1.794-.84-.84-1.36-1.64-1.794-2.759-.329-.845-.72-2.116-.827-4.455-.115-2.53-.14-3.289-.14-9.695 0-6.406.025-7.165.14-9.695.107-2.34.498-3.61.827-4.455.435-1.12.955-1.92 1.794-2.759.84-.84 1.64-1.36 2.759-1.795.845-.328 2.116-.719 4.455-.826 2.53-.115 3.289-.14 9.695-.14m0-4.322c-6.516 0-7.333.027-9.892.144-2.554.116-4.298.522-5.824 1.115-1.578.613-2.916 1.434-4.25 2.767-1.333 1.334-2.154 2.672-2.767 4.25-.593 1.526-.999 3.27-1.115 5.824-.117 2.559-.144 3.376-.144 9.892s.027 7.333.144 9.892c.116 2.554.522 4.298 1.115 5.824.613 1.578 1.434 2.916 2.767 4.25 1.334 1.333 2.672 2.154 4.25 2.767 1.526.593 3.27.999 5.824 1.115 2.559.117 3.376.144 9.892.144s7.333-.027 9.892-.144c2.554-.116 4.298-.522 5.824-1.115 1.578-.613 2.916-1.434 4.25-2.767 1.333-1.334 2.154-2.672 2.767-4.25.593-1.526.999-3.27 1.115-5.824.117-2.559.144-3.376.144-9.892s-.027-7.333-.144-9.892c-.116-2.554-.522-4.298-1.115-5.824-.613-1.578-1.434-2.916-2.767-4.25-1.334-1.333-2.672-2.154-4.25-2.767-1.526-.593-3.27-.999-5.824-1.115-2.559-.117-3.376-.144-9.892-.144"/>
        <path d="M26 13.68c-6.804 0-12.32 5.516-12.32 12.32S19.196 38.32 26 38.32 38.32 32.804 38.32 26 32.804 13.68 26 13.68zm0 20.318a7.998 7.998 0 1 1 0-15.996 7.998 7.998 0 0 1 0 15.996zM41.686 13.193a2.88 2.88 0 1 1-5.758 0 2.88 2.88 0 0 1 5.758 0"/>
    </g>
</svg>
